# Blender v2.90.1 OBJ File: 'junctionTest.blend'
# www.blender.org
mtllib plain.mtl
o Cube.003_Cube.001
v -151.000000 151.000000 -0.300000
v -151.000000 151.000000 0.100000
v 151.000000 151.000000 -0.300000
v 151.000000 151.000000 0.100000
v -151.000000 -151.000000 -0.300000
v -151.000000 -151.000000 0.100000
v 151.000000 -151.000000 -0.300000
v 151.000000 -151.000000 0.100000
vt 0.929688 0.929687
vt 0.929688 0.929687
vt 0.929688 0.929687
vt 0.929688 0.929687
vt 0.929688 0.929687
vt 0.929688 0.929687
vt 0.929688 0.929687
vt 0.929688 0.929687
vn 0.0000 1.0000 0.0000
vn 1.0000 0.0000 0.0000
vn 0.0000 -1.0000 0.0000
vn -1.0000 0.0000 0.0000
vn 0.0000 0.0000 -1.0000
vn 0.0000 0.0000 1.0000
usemtl Material
s off
f 1/1/1 2/2/1 4/3/1 3/4/1
f 3/4/2 4/3/2 8/5/2 7/6/2
f 7/6/3 8/5/3 6/7/3 5/8/3
f 5/8/4 6/7/4 2/2/4 1/1/4
f 3/4/5 7/6/5 5/8/5 1/1/5
f 8/5/6 4/3/6 2/2/6 6/7/6
